<svg width="110" height="22" viewBox="0 0 110 22" fill="none" xmlns="http://www.w3.org/2000/svg">
<path d="M7.93411 9.15989C9.86564 9.30847 11.2846 9.75421 12.1909 10.4971C13.0972 11.24 13.5504 12.1166 13.5504 13.127C13.5504 14.5087 13.0081 15.5785 11.9235 16.3363C10.8388 17.0792 9.33076 17.4506 7.39923 17.4506C6.96835 17.4506 6.60433 17.4432 6.30717 17.4283C5.32655 17.3986 4.36822 17.3837 3.43217 17.3837C1.90181 17.3837 0.757752 17.406 0 17.4506V17.0049C0.49031 16.9751 0.8469 16.9157 1.06977 16.8266C1.30749 16.7374 1.4635 16.5666 1.53779 16.314C1.62694 16.0614 1.67151 15.6528 1.67151 15.0882V4.03392C1.67151 3.46932 1.62694 3.06073 1.53779 2.80814C1.4635 2.55556 1.30749 2.38469 1.06977 2.29555C0.8469 2.2064 0.49031 2.14697 0 2.11725V1.67151C0.757752 1.71609 1.88695 1.73837 3.3876 1.73837L5.86144 1.71609C6.1586 1.70123 6.50033 1.6938 6.88663 1.6938C8.66958 1.6938 10.0291 2.01325 10.9651 2.65214C11.916 3.29102 12.3915 4.13792 12.3915 5.19284C12.3915 6.05459 12.0126 6.85692 11.2549 7.59981C10.512 8.34271 9.40505 8.84788 7.93411 9.11532V9.15989ZM6.5969 2.11725C6.19574 2.11725 5.89858 2.16925 5.70543 2.27326C5.52714 2.37726 5.40084 2.56299 5.32655 2.83043C5.25226 3.09787 5.21512 3.49904 5.21512 4.03392V9.07075H6.17345C7.13922 9.07075 7.81525 8.74387 8.20156 8.09012C8.58786 7.42152 8.78102 6.53748 8.78102 5.43799C8.78102 4.32365 8.60272 3.49161 8.24613 2.94186C7.9044 2.39212 7.35466 2.11725 6.5969 2.11725ZM6.75291 16.938C8.81816 16.938 9.85078 15.6379 9.85078 13.0378C9.85078 11.864 9.55363 10.9726 8.95931 10.3634C8.36499 9.75421 7.42895 9.44962 6.15117 9.44962H5.21512V15.0882C5.21512 15.6231 5.25226 16.0168 5.32655 16.2694C5.40084 16.522 5.54199 16.7003 5.75 16.8043C5.97287 16.8934 6.30718 16.938 6.75291 16.938Z" fill="#1C1C1C"/>
<path d="M20.5011 5.61629C22.2098 5.61629 23.547 6.1066 24.5127 7.08722C25.4785 8.05298 25.9614 9.59077 25.9614 11.7006C25.9614 13.8104 25.4785 15.3482 24.5127 16.314C23.547 17.2797 22.2098 17.7626 20.5011 17.7626C18.8073 17.7626 17.4701 17.2797 16.4895 16.314C15.5237 15.3482 15.0408 13.8104 15.0408 11.7006C15.0408 9.59077 15.5237 8.05298 16.4895 7.08722C17.4701 6.1066 18.8073 5.61629 20.5011 5.61629ZM20.5011 6.06202C19.8622 6.06202 19.3496 6.53005 18.9633 7.46609C18.5919 8.38728 18.4061 9.79878 18.4061 11.7006C18.4061 13.6024 18.5919 15.0139 18.9633 15.9351C19.3496 16.8563 19.8622 17.3169 20.5011 17.3169C21.1549 17.3169 21.6674 16.8637 22.0389 15.9574C22.4103 15.0362 22.5961 13.6173 22.5961 11.7006C22.5961 9.78392 22.4029 8.365 22.0166 7.44381C21.6452 6.52262 21.14 6.06202 20.5011 6.06202Z" fill="#1C1C1C"/>
<path d="M38.3179 14.999C38.3179 15.6825 38.4219 16.1802 38.6299 16.4923C38.8379 16.8043 39.2093 16.9603 39.7442 16.9603V17.4283C39.2836 17.3837 38.823 17.3615 38.3624 17.3615C37.0401 17.3615 35.9555 17.4655 35.1086 17.6735V15.7568C34.6034 17.094 33.6376 17.7626 32.2113 17.7626C30.8146 17.7626 29.7003 17.2574 28.8682 16.2471C28.0511 15.2219 27.6499 13.6841 27.6648 11.6337C27.6648 10.3262 27.8728 9.22675 28.2888 8.33528C28.7197 7.42895 29.3066 6.75291 30.0494 6.30718C30.8072 5.84658 31.669 5.61629 32.6347 5.61629C33.7193 5.61629 34.544 5.89859 35.1086 6.46318V2.67442C35.1086 1.99096 34.9971 1.49322 34.7743 1.1812C34.5662 0.869187 34.2022 0.713179 33.6822 0.713179V0.245156C34.1577 0.289729 34.6182 0.312016 35.064 0.312016C36.3566 0.312016 37.4412 0.208011 38.3179 0V14.999ZM33.125 16.8043C33.6153 16.8043 34.0462 16.626 34.4177 16.2694C34.804 15.9128 35.0343 15.4299 35.1086 14.8208V7.02036C34.7371 6.51519 34.1948 6.2626 33.4816 6.2626C32.6941 6.2626 32.085 6.71577 31.6541 7.6221C31.2232 8.52843 31.0152 9.8805 31.0301 11.6783C31.0152 13.491 31.1861 14.7985 31.5427 15.6008C31.9141 16.4031 32.4416 16.8043 33.125 16.8043Z" fill="#1C1C1C"/>
<path d="M49.8548 5.99516C50.5977 5.99516 51.1697 5.97288 51.5709 5.9283V6.37404C51.2589 6.46319 50.9766 6.65634 50.724 6.9535C50.4862 7.2358 50.2559 7.68153 50.0331 8.29071L46.0437 19.501C45.7466 20.2736 45.4197 20.8011 45.0631 21.0834C44.6322 21.4548 43.9859 21.6405 43.1242 21.6405C42.5001 21.6405 41.9355 21.4845 41.4304 21.1725C40.94 20.8753 40.6949 20.437 40.6949 19.8576C40.6949 19.397 40.8583 19.0255 41.1852 18.7432C41.5121 18.4758 41.943 18.3421 42.4778 18.3421C42.983 18.3421 43.3842 18.4609 43.6813 18.6987C43.9933 18.9512 44.1494 19.3004 44.1494 19.7461C44.1494 20.0582 44.0528 20.3405 43.8596 20.593C43.6665 20.8605 43.3916 21.0611 43.035 21.1948C43.139 21.2096 43.3099 21.2171 43.5476 21.2171C44.4688 21.2171 45.1448 20.6302 45.5757 19.4564L45.9323 18.3866L41.2075 7.64439C40.9698 7.13922 40.7395 6.80492 40.5166 6.64148C40.2937 6.47804 40.0634 6.39632 39.8257 6.39632V5.9283C40.8063 6.01745 41.8241 6.06202 42.879 6.06202C43.7556 6.06202 44.7882 6.01745 45.9769 5.9283V6.39632C45.5014 6.39632 45.1448 6.43347 44.9071 6.50776C44.6842 6.56719 44.5728 6.73806 44.5728 7.02036C44.5728 7.18379 44.6248 7.3918 44.7288 7.64439L47.4478 14.219L48.9856 9.93993C49.2233 9.24161 49.3422 8.6473 49.3422 8.15698C49.3422 7.07236 48.7924 6.47804 47.693 6.37404V5.9283C48.3913 5.97288 49.1119 5.99516 49.8548 5.99516Z" fill="#1C1C1C"/>
<path d="M70.1482 15.3779C70.1482 15.9871 70.2522 16.4105 70.4602 16.6483C70.6831 16.8711 71.0545 16.9826 71.5745 16.9826V17.4506C70.0887 17.3912 69.1081 17.3615 68.6327 17.3615C68.2166 17.3615 67.2955 17.3912 65.8691 17.4506V16.9826C66.2703 16.9826 66.5451 16.8711 66.6937 16.6483C66.8571 16.4254 66.9389 16.002 66.9389 15.3779V8.44671C66.9389 7.82268 66.8423 7.36209 66.6491 7.06493C66.4708 6.75291 66.1217 6.59691 65.6017 6.59691C65.0519 6.59691 64.569 6.8272 64.153 7.2878C63.7518 7.74839 63.5141 8.31299 63.4398 8.9816V9.38276V15.3779C63.4398 15.9871 63.529 16.4105 63.7073 16.6483C63.9004 16.8711 64.2422 16.9826 64.7325 16.9826V17.4506C63.3061 17.3912 62.3701 17.3615 61.9243 17.3615C61.5083 17.3615 60.5871 17.3912 59.1608 17.4506V16.9826C59.5619 16.9826 59.8368 16.8711 59.9854 16.6483C60.1488 16.4105 60.2305 15.9871 60.2305 15.3779V8.44671C60.2305 7.82268 60.1488 7.36209 59.9854 7.06493C59.8219 6.75291 59.5025 6.59691 59.027 6.59691C58.4327 6.59691 57.9201 6.84949 57.4892 7.35466C57.0732 7.84497 56.8652 8.45414 56.8652 9.18218V15.3779C56.8652 15.9871 56.9395 16.4105 57.0881 16.6483C57.2515 16.8711 57.5338 16.9826 57.935 16.9826V17.4506C56.6275 17.3912 55.7509 17.3615 55.3051 17.3615C54.8594 17.3615 53.8342 17.3912 52.2296 17.4506V16.9826C52.7644 16.9826 53.1359 16.8711 53.3439 16.6483C53.5519 16.4105 53.6559 15.9871 53.6559 15.3779V8.35757C53.6559 7.6741 53.5519 7.17636 53.3439 6.86435C53.1359 6.55233 52.7644 6.39632 52.2296 6.39632V5.9283C52.705 5.97288 53.1656 5.99516 53.6113 5.99516C54.9337 5.99516 56.0183 5.89116 56.8652 5.68315V7.68896C57.519 6.30718 58.6704 5.61629 60.3197 5.61629C61.4489 5.61629 62.2661 5.90601 62.7712 6.48547C63.0535 6.78263 63.2393 7.22837 63.3284 7.82268C63.7147 7.02036 64.2199 6.45576 64.8439 6.12888C65.4679 5.78715 66.196 5.61629 67.028 5.61629C68.1572 5.61629 68.9744 5.90601 69.4796 6.48547C69.7173 6.75291 69.8882 7.11693 69.9922 7.57753C70.0962 8.03812 70.1482 8.63987 70.1482 9.38276V15.3779Z" fill="#1C1C1C"/>
<path d="M78.1552 5.61629C79.8639 5.61629 81.2011 6.1066 82.1669 7.08722C83.1326 8.05298 83.6155 9.59077 83.6155 11.7006C83.6155 13.8104 83.1326 15.3482 82.1669 16.314C81.2011 17.2797 79.8639 17.7626 78.1552 17.7626C76.4614 17.7626 75.1242 17.2797 74.1436 16.314C73.1778 15.3482 72.695 13.8104 72.695 11.7006C72.695 9.59077 73.1778 8.05298 74.1436 7.08722C75.1242 6.1066 76.4614 5.61629 78.1552 5.61629ZM78.1552 6.06202C77.5163 6.06202 77.0038 6.53005 76.6174 7.46609C76.246 8.38728 76.0603 9.79878 76.0603 11.7006C76.0603 13.6024 76.246 15.0139 76.6174 15.9351C77.0038 16.8563 77.5163 17.3169 78.1552 17.3169C78.809 17.3169 79.3216 16.8637 79.693 15.9574C80.0645 15.0362 80.2502 13.6173 80.2502 11.7006C80.2502 9.78392 80.0571 8.365 79.6707 7.44381C79.2993 6.52262 78.7941 6.06202 78.1552 6.06202Z" fill="#1C1C1C"/>
<path d="M90.7569 5.61629C92.4655 5.61629 93.8027 6.1066 94.7685 7.08722C95.7343 8.05298 96.2172 9.59077 96.2172 11.7006C96.2172 13.8104 95.7343 15.3482 94.7685 16.314C93.8027 17.2797 92.4655 17.7626 90.7569 17.7626C89.0631 17.7626 87.7259 17.2797 86.7452 16.314C85.7795 15.3482 85.2966 13.8104 85.2966 11.7006C85.2966 9.59077 85.7795 8.05298 86.7452 7.08722C87.7259 6.1066 89.0631 5.61629 90.7569 5.61629ZM90.7569 6.06202C90.118 6.06202 89.6054 6.53005 89.2191 7.46609C88.8476 8.38728 88.6619 9.79878 88.6619 11.7006C88.6619 13.6024 88.8476 15.0139 89.2191 15.9351C89.6054 16.8563 90.118 17.3169 90.7569 17.3169C91.4106 17.3169 91.9232 16.8637 92.2947 15.9574C92.6661 15.0362 92.8518 13.6173 92.8518 11.7006C92.8518 9.78392 92.6587 8.365 92.2724 7.44381C91.9009 6.52262 91.3958 6.06202 90.7569 6.06202Z" fill="#1C1C1C"/>
<path d="M108.574 14.999C108.574 15.6825 108.678 16.1802 108.886 16.4923C109.094 16.8043 109.465 16.9603 110 16.9603V17.4283C109.539 17.3837 109.079 17.3615 108.618 17.3615C107.296 17.3615 106.211 17.4655 105.364 17.6735V15.7568C104.859 17.094 103.893 17.7626 102.467 17.7626C101.07 17.7626 99.9561 17.2574 99.124 16.2471C98.3068 15.2219 97.9057 13.6841 97.9205 11.6337C97.9205 10.3262 98.1285 9.22675 98.5446 8.33528C98.9754 7.42895 99.5623 6.75291 100.305 6.30718C101.063 5.84658 101.925 5.61629 102.891 5.61629C103.975 5.61629 104.8 5.89859 105.364 6.46318V2.67442C105.364 1.99096 105.253 1.49322 105.03 1.1812C104.822 0.869187 104.458 0.713179 103.938 0.713179V0.245156C104.413 0.289729 104.874 0.312016 105.32 0.312016C106.612 0.312016 107.697 0.208011 108.574 0V14.999ZM103.381 16.8043C103.871 16.8043 104.302 16.626 104.673 16.2694C105.06 15.9128 105.29 15.4299 105.364 14.8208V7.02036C104.993 6.51519 104.451 6.2626 103.737 6.2626C102.95 6.2626 102.341 6.71577 101.91 7.6221C101.479 8.52843 101.271 9.8805 101.286 11.6783C101.271 13.491 101.442 14.7985 101.798 15.6008C102.17 16.4031 102.697 16.8043 103.381 16.8043Z" fill="#1C1C1C"/>
</svg>
