<svg width="24" height="24" viewBox="0 0 24 24" fill="none" xmlns="http://www.w3.org/2000/svg">
<path d="M17.4639 12.5937C17.4412 10.1819 19.4221 9.02399 19.5072 8.97032C18.3948 7.33162 16.6602 7.10323 16.0449 7.07582C14.5691 6.92623 13.1626 7.9517 12.4123 7.9517C11.6619 7.9517 10.5074 7.10095 9.28481 7.12493C7.67283 7.14777 6.19254 8.06704 5.36385 9.51275C3.69284 12.4293 4.93474 16.7527 6.56602 19.1177C7.36065 20.2756 8.30854 21.5763 9.55385 21.5295C10.756 21.4827 11.209 20.7496 12.6609 20.7496C14.1128 20.7496 14.5192 21.5295 15.7895 21.5101C17.0802 21.4827 17.8987 20.3247 18.6865 19.1668C19.2513 18.3304 19.6936 17.4166 19.9999 16.4535C19.9783 16.4433 17.4877 15.4817 17.4639 12.5937Z" fill="white"/>
<path d="M15.0753 5.51146C15.7394 4.70638 16.1855 3.58499 16.0618 2.4693C15.1094 2.50584 13.9549 3.10879 13.2738 3.91159C12.6585 4.62759 12.1193 5.77068 12.2657 6.86239C13.3271 6.94347 14.4158 6.31768 15.0753 5.51146Z" fill="white"/>
</svg>
