<svg width="28" height="28" viewBox="0 0 28 28" fill="none" xmlns="http://www.w3.org/2000/svg">
<path d="M21 18.7602C20.1133 18.7602 19.32 19.1102 18.7133 19.6585L10.395 14.8168C10.4533 14.5485 10.5 14.2802 10.5 14.0002C10.5 13.7202 10.4533 13.4518 10.395 13.1835L18.62 8.3885C19.25 8.97183 20.0783 9.3335 21 9.3335C22.9367 9.3335 24.5 7.77016 24.5 5.8335C24.5 3.89683 22.9367 2.3335 21 2.3335C19.0633 2.3335 17.5 3.89683 17.5 5.8335C17.5 6.1135 17.5467 6.38183 17.605 6.65016L9.38 11.4452C8.75 10.8618 7.92167 10.5002 7 10.5002C5.06333 10.5002 3.5 12.0635 3.5 14.0002C3.5 15.9368 5.06333 17.5002 7 17.5002C7.92167 17.5002 8.75 17.1385 9.38 16.5552L17.6867 21.4085C17.6283 21.6535 17.5933 21.9102 17.5933 22.1668C17.5933 24.0452 19.1217 25.5735 21 25.5735C22.8783 25.5735 24.4067 24.0452 24.4067 22.1668C24.4067 20.2885 22.8783 18.7602 21 18.7602Z" fill="#323232"/>
</svg>
