<svg width="355" height="685" viewBox="0 0 355 685" fill="none" xmlns="http://www.w3.org/2000/svg">
<g style="mix-blend-mode:hard-light" opacity="0.6">
<path d="M69.8 67.2C84.4667 69.2 94.9333 73.4667 101.2 80C107.467 86.4 110.6 94.1333 110.6 103.2C110.6 110.8 108.667 117.533 104.8 123.4C100.933 129.267 95.4 133.867 88.2 137.2C81 140.4 72.4667 142 62.6 142C59 142 55.9333 141.933 53.4 141.8C44.8667 141.533 36.4667 141.4 28.2 141.4C17.2667 141.4 9 141.6 3.4 142L3.4 138C8.2 137.733 11.6667 137.2 13.8 136.4C16.0667 135.6 17.6 134.067 18.4 131.8C19.2 129.533 19.6 125.867 19.6 120.8L19.6 21.6C19.6 16.5333 19.2 12.8667 18.4 10.6C17.6 8.33333 16.0667 6.8 13.8 6C11.6667 5.19999 8.2 4.66666 3.4 4.4V0.399999C9 0.799994 17.1333 0.999991 27.8 0.999991L49.4 0.799994C51.9333 0.666662 54.8 0.599997 58 0.599997C71.6 0.599997 82 3.46666 89.2 9.19999C96.5333 14.9333 100.2 22.5333 100.2 32C100.2 39.7333 97.7333 46.6667 92.8 52.8C88 58.9333 80.3333 63.6 69.8 66.8V67.2ZM53 4.4C48.8667 4.4 45.7333 4.86666 43.6 5.79999C41.6 6.73333 40.2 8.4 39.4 10.8C38.6 13.2 38.2 16.8 38.2 21.6L38.2 66.8L51.6 66.8C62.5333 66.8 70.1333 63.8667 74.4 58C78.8 52 81 44.0667 81 34.2C81 24.2 78.8 16.7333 74.4 11.8C70 6.86666 62.8667 4.4 53 4.4ZM53.2 137.4C78.1333 137.4 90.6 125.733 90.6 102.4C90.6 91.8667 87.7333 83.8667 82 78.4C76.4 72.9333 67.4 70.2 55 70.2L38.2 70.2L38.2 120.8C38.2 125.6 38.6 129.133 39.4 131.4C40.2 133.667 41.6 135.267 43.6 136.2C45.7333 137 48.9333 137.4 53.2 137.4ZM173.409 36.2C187.009 36.2 197.943 40.7333 206.209 49.8C214.609 58.7333 218.809 72.3333 218.809 90.6C218.809 108.867 214.609 122.467 206.209 131.4C197.943 140.333 187.009 144.8 173.409 144.8C159.809 144.8 148.809 140.333 140.409 131.4C132.143 122.467 128.009 108.867 128.009 90.6C128.009 72.3333 132.143 58.7333 140.409 49.8C148.809 40.7333 159.809 36.2 173.409 36.2ZM173.409 40.2C165.409 40.2 159.076 44.3333 154.409 52.6C149.743 60.7333 147.409 73.4 147.409 90.6C147.409 107.8 149.743 120.467 154.409 128.6C159.076 136.733 165.409 140.8 173.409 140.8C181.409 140.8 187.743 136.733 192.409 128.6C197.076 120.467 199.409 107.8 199.409 90.6C199.409 73.4 197.076 60.7333 192.409 52.6C187.743 44.3333 181.409 40.2 173.409 40.2ZM189.409 300.2C189.409 306.333 190.543 310.8 192.809 313.6C195.076 316.4 199.009 317.8 204.609 317.8V322C200.476 321.6 196.343 321.4 192.209 321.4C183.809 321.4 176.876 322.333 171.409 324.2V306.4C169.009 312.4 165.409 317 160.609 320.2C155.809 323.267 149.943 324.8 143.009 324.8C130.209 324.8 120.143 320.2 112.809 311C105.609 301.8 102.076 288.333 102.209 270.6C102.209 259 104.209 249.133 108.209 241C112.343 232.733 117.809 226.533 124.609 222.4C131.543 218.267 139.143 216.2 147.409 216.2C152.476 216.2 157.076 217.2 161.209 219.2C165.476 221.067 168.876 224 171.409 228V189.2C171.409 183.067 170.276 178.6 168.009 175.8C165.743 173 161.809 171.6 156.209 171.6V167.4C160.476 167.8 164.609 168 168.609 168C177.009 168 183.943 167.067 189.409 165.2L189.409 300.2ZM148.809 318.8C154.009 318.8 158.676 316.8 162.809 312.8C166.943 308.8 169.809 303.133 171.409 295.8V236.2C167.809 225.933 160.343 220.8 149.009 220.8C140.743 220.8 134.076 225.067 129.009 233.6C123.943 242 121.476 254.333 121.609 270.6C121.476 286.6 123.743 298.667 128.409 306.8C133.076 314.8 139.876 318.8 148.809 318.8ZM291.42 219.6C297.287 219.6 302.354 219.4 306.62 219V223C303.954 223.267 301.554 224.467 299.42 226.6C297.42 228.733 295.487 232.2 293.62 237L260.82 323L254.02 340.4C251.487 346.933 248.62 351.6 245.42 354.4C243.42 356.267 241.02 357.6 238.22 358.4C235.42 359.2 232.62 359.6 229.82 359.6C225.82 359.6 222.554 358.533 220.02 356.4C217.487 354.267 216.22 351.333 216.22 347.6C216.22 344.4 217.154 341.8 219.02 339.8C220.887 337.933 223.487 337 226.82 337C229.754 337 232.154 337.8 234.02 339.4C236.02 341.133 237.02 343.467 237.02 346.4C237.02 350.4 235.22 353.4 231.62 355.4C231.887 355.533 232.287 355.6 232.82 355.6C240.154 355.6 245.82 350.4 249.82 340L256.82 321.8L220.62 234.4C218.354 229.867 216.087 226.867 213.82 225.4C211.554 223.933 209.287 223.2 207.02 223.2V219C212.754 219.8 219.287 220.2 226.62 220.2C233.287 220.2 241.954 219.8 252.62 219V223.2C247.82 223.2 244.287 223.6 242.02 224.4C239.887 225.2 238.82 227.133 238.82 230.2C238.82 233 239.62 236.267 241.22 240L265.22 299.6L287.42 241.8C288.887 237.8 289.62 234.733 289.62 232.6C289.62 229.533 288.42 227.267 286.02 225.8C283.62 224.333 279.82 223.4 274.62 223V219C281.687 219.4 287.287 219.6 291.42 219.6ZM154.4 483.4C154.4 488.867 155.533 492.667 157.8 494.8C160.067 496.8 164 497.8 169.6 497.8V502C157.333 501.467 149.333 501.2 145.6 501.2C141.867 501.2 134.4 501.467 123.2 502V497.8C128.133 497.8 131.533 496.8 133.4 494.8C135.4 492.667 136.4 488.867 136.4 483.4V425.6C136.4 420.533 136.067 416.467 135.4 413.4C134.867 410.2 133.467 407.6 131.2 405.6C129.067 403.6 125.733 402.6 121.2 402.6C116.133 402.6 111.533 404.2 107.4 407.4C103.267 410.6 100 415 97.6 420.6C95.3333 426.067 94.2 432.133 94.2 438.8L94.2 483.4C94.2 488.867 95.3333 492.667 97.6 494.8C99.8667 496.8 103.8 497.8 109.4 497.8V502C97.1333 501.467 89.1333 501.2 85.4 501.2C81.6667 501.2 74.2 501.467 63 502V497.8C67.9333 497.8 71.3333 496.8 73.2 494.8C75.2 492.667 76.2 488.867 76.2 483.4L76.2 425.6C76.2 420.533 75.8667 416.467 75.2 413.4C74.6667 410.2 73.2667 407.6 71 405.6C68.8667 403.6 65.5333 402.6 61 402.6C55.9333 402.6 51.3333 404.2 47.2 407.4C43.0667 410.6 39.8 415 37.4 420.6C35.1333 426.2 34 432.333 34 439L34 483.4C34 488.867 34.9333 492.667 36.8 494.8C38.8 496.8 42.2667 497.8 47.2 497.8V502C36 501.467 28.5333 501.2 24.8 501.2C21.0667 501.2 13.0667 501.467 0.8 502L0.8 497.8C6.4 497.8 10.3333 496.8 12.6 494.8C14.8667 492.667 16 488.867 16 483.4L16 420.8C16 414.667 14.8667 410.2 12.6 407.4C10.3333 404.6 6.4 403.2 0.8 403.2L0.8 399C5.06667 399.4 9.2 399.6 13.2 399.6C21.6 399.6 28.5333 398.667 34 396.8V420.4C37.2 412.133 41.7333 406.067 47.6 402.2C53.4667 398.2 59.8667 396.2 66.8 396.2C75.8667 396.2 82.8 398.733 87.6 403.8C90.9333 407.267 93 412.6 93.8 419.8C97.1333 411.4 101.733 405.4 107.6 401.8C113.467 398.067 119.933 396.2 127 396.2C136.067 396.2 143 398.733 147.8 403.8C150.2 406.467 151.867 409.867 152.8 414C153.867 418.133 154.4 423.467 154.4 430V483.4ZM226.339 396.2C239.939 396.2 250.872 400.733 259.139 409.8C267.539 418.733 271.739 432.333 271.739 450.6C271.739 468.867 267.539 482.467 259.139 491.4C250.872 500.333 239.939 504.8 226.339 504.8C212.739 504.8 201.739 500.333 193.339 491.4C185.072 482.467 180.939 468.867 180.939 450.6C180.939 432.333 185.072 418.733 193.339 409.8C201.739 400.733 212.739 396.2 226.339 396.2ZM226.339 400.2C218.339 400.2 212.006 404.333 207.339 412.6C202.672 420.733 200.339 433.4 200.339 450.6C200.339 467.8 202.672 480.467 207.339 488.6C212.006 496.733 218.339 500.8 226.339 500.8C234.339 500.8 240.672 496.733 245.339 488.6C250.006 480.467 252.339 467.8 252.339 450.6C252.339 433.4 250.006 420.733 245.339 412.6C240.672 404.333 234.339 400.2 226.339 400.2ZM334.909 396.2C348.509 396.2 359.443 400.733 367.709 409.8C376.109 418.733 380.309 432.333 380.309 450.6C380.309 468.867 376.109 482.467 367.709 491.4C359.443 500.333 348.509 504.8 334.909 504.8C321.309 504.8 310.309 500.333 301.909 491.4C293.643 482.467 289.509 468.867 289.509 450.6C289.509 432.333 293.643 418.733 301.909 409.8C310.309 400.733 321.309 396.2 334.909 396.2ZM334.909 400.2C326.909 400.2 320.576 404.333 315.909 412.6C311.243 420.733 308.909 433.4 308.909 450.6C308.909 467.8 311.243 480.467 315.909 488.6C320.576 496.733 326.909 500.8 334.909 500.8C342.909 500.8 349.243 496.733 353.909 488.6C358.576 480.467 360.909 467.8 360.909 450.6C360.909 433.4 358.576 420.733 353.909 412.6C349.243 404.333 342.909 400.2 334.909 400.2ZM335.823 660.2C335.823 666.333 336.957 670.8 339.223 673.6C341.49 676.4 345.423 677.8 351.023 677.8V682C346.89 681.6 342.757 681.4 338.623 681.4C330.223 681.4 323.29 682.333 317.823 684.2V666.4C315.423 672.4 311.823 677 307.023 680.2C302.223 683.267 296.357 684.8 289.423 684.8C276.623 684.8 266.557 680.2 259.223 671C252.023 661.8 248.49 648.333 248.623 630.6C248.623 619 250.623 609.133 254.623 601C258.757 592.733 264.223 586.533 271.023 582.4C277.957 578.267 285.557 576.2 293.823 576.2C298.89 576.2 303.49 577.2 307.623 579.2C311.89 581.067 315.29 584 317.823 588V549.2C317.823 543.067 316.69 538.6 314.423 535.8C312.157 533 308.223 531.6 302.623 531.6V527.4C306.89 527.8 311.023 528 315.023 528C323.423 528 330.357 527.067 335.823 525.2V660.2ZM295.223 678.8C300.423 678.8 305.09 676.8 309.223 672.8C313.357 668.8 316.223 663.133 317.823 655.8V596.2C314.223 585.933 306.757 580.8 295.423 580.8C287.157 580.8 280.49 585.067 275.423 593.6C270.357 602 267.89 614.333 268.023 630.6C267.89 646.6 270.157 658.667 274.823 666.8C279.49 674.8 286.29 678.8 295.223 678.8Z" fill="#F3F6FA"/>
</g>
</svg>
